<svg xmlns="http://www.w3.org/2000/svg" viewBox="0 0 514.95 364.83">
    <g transform="translate(-184.402 0)">
        <path
            d="M876.437,632.415H877.8c.153-.174.3-.351.446-.528a29.14,29.14,0,0,0,6.134-13.106,28.433,28.433,0,0,0-2.452-17.7,29.09,29.09,0,0,0-2.65-4.386c-.359.077-.713.164-1.061.269a27.5,27.5,0,0,1-1.312,34.919Q876.679,632.152,876.437,632.415Z"
            transform="translate(-185.5 -267.585)" fill="#fff" />
        <path
            d="M592.01,480.094H496.029l-1.018-29.511a8.86,8.86,0,0,1,9.931-9.1l55.854,6.839h.007a31.291,31.291,0,0,1,31.206,31.27Z"
            transform="translate(-185.5 -267.585)" fill="currentColor" />
        <path
            d="M549.231,375.414H482.289a6.777,6.777,0,0,0-6.779,6.779v66.942a6.777,6.777,0,0,0,6.779,6.779h66.942a6.777,6.777,0,0,0,6.779-6.779V382.193a6.777,6.777,0,0,0-6.779-6.779Z"
            transform="translate(-185.5 -267.585)" fill="#ccc" />
        <path
            d="M534.154,425.471l-31.606,6.155a7.211,7.211,0,0,1-8.447-5.693l-2.429-12.476a7.211,7.211,0,0,1,5.693-8.447l31.606-6.155a7.211,7.211,0,0,1,8.447,5.693l2.43,12.476A7.211,7.211,0,0,1,534.154,425.471Z"
            transform="translate(-185.5 -267.585)" fill="#3f3d56" />
        <path d="M527.831,410.732l-24.121,4.7a1.695,1.695,0,1,1-.648-3.327l24.121-4.7a1.695,1.695,0,1,1,.648,3.327Z"
            transform="translate(-185.5 -267.585)" fill="#fff" />
        <path d="M523.143,417.688l-12.476,2.43a1.695,1.695,0,0,1-.648-3.327l12.476-2.43a1.695,1.695,0,1,1,.648,3.327Z"
            transform="translate(-185.5 -267.585)" fill="#fff" />
        <path d="M556.01,382.193v8.9h-80.5v-8.9a6.777,6.777,0,0,1,6.779-6.779h66.942A6.777,6.777,0,0,1,556.01,382.193Z"
            transform="translate(-185.5 -267.585)" fill="#b3b3b3" />
        <path
            d="M716.76,393.877a10.743,10.743,0,0,0-15.193-6.365l-92.1-33.043-4.056,23.007,91.8,25.245a10.8,10.8,0,0,0,19.543-8.845Z"
            transform="translate(-185.5 -267.585)" fill="#ffb8b8" />
        <path
            d="M716.76,393.877a10.743,10.743,0,0,0-15.193-6.365l-92.1-33.043-4.056,23.007,91.8,25.245a10.8,10.8,0,0,0,19.543-8.845Z"
            transform="translate(-185.5 -267.585)" opacity="0.2" />
        <path
            d="M625.817,358.662l-8.7,22.72a4.817,4.817,0,0,1-6.861,2.476l-21.136-11.9A13.377,13.377,0,0,1,598.761,347l23.6,5.235a4.817,4.817,0,0,1,3.454,6.424Z"
            transform="translate(-185.5 -267.585)" fill="currentColor" />
        <path d="M724.01,414.914l-33,15,4.333,16.311a253.734,253.734,0,0,1,6.54,96.65h0l24.128,5.039,20-51-7-58Z"
            transform="translate(-185.5 -267.585)" fill="currentColor" />
        <path
            d="M788.76,490.414c-21.682,0-39.352,15.762-40.209,35.5h80.418C828.111,506.176,810.442,490.414,788.76,490.414Z"
            transform="translate(-185.5 -267.585)" fill="#3f3d56" />
        <path
            d="M771.881,493.816c-1.128-89.1-51.872-80.9-51.872-80.9s.949,27.733,1.405,28.6c32.335,61.18-21.03,132.9-88.96,119.709q-1.921-.373-3.691-.757A34.581,34.581,0,0,1,601.6,521.7c6.692-53.736-26.591-52.785-26.591-52.785H526.343L501.07,446.169a7.347,7.347,0,0,0-11.809,2.921l-3.251,8.825s-48,5-44,52h14.84a29.967,29.967,0,0,0,.16,4l110.751-.9c6.492-.053,12.222,5.208,12.249,11.7a11.753,11.753,0,0,1-12.144,11.8l-17.855-.6c-5.5,24.5,8,41,22.875,51.375A83.149,83.149,0,0,0,620.5,601.914H669.01c63,0,74-53,74-53C776.01,534.914,771.881,493.816,771.881,493.816Z"
            transform="translate(-185.5 -267.585)" fill="#3f3d56" />
        <circle class='wheel1' cx="56.25" cy="56.25" r="56.25" transform="translate(544.01 250.829)" fill="#3f3d56" />
        <circle cx="13.787" cy="13.787" r="13.787" transform="translate(586.473 293.292)" fill="#fff" />
        <circle class='wheel2' cx="64.75" cy="64.75" r="64.75" transform="translate(251.51 233.829)" fill="#3f3d56" />
        <circle cx="15.87" cy="15.87" r="15.87" transform="translate(300.39 282.709)" fill="#fff" />
        <path d="M691.1,434.347,679.23,402.1a13.638,13.638,0,0,1,8.087-17.511l34.04-12.531a24,24,0,1,1,16.585,45.039Z"
            transform="translate(-185.5 -267.585)" fill="#3f3d56" />
        <path
            d="M753.15,394.574a23.55,23.55,0,0,1-8.8,18.34,29.988,29.988,0,0,1-19.7-41.3,23.505,23.505,0,0,1,28.5,22.96Z"
            transform="translate(-185.5 -267.585)" fill="currentColor" />
        <ellipse cx="14" cy="17" rx="14" ry="17" transform="translate(251.01 214.829)" fill="currentColor" />
        <path d="M450.071,292.005h12.26l5.833-31.8h-18.1Z" fill="#ffb8b8" />
        <path d="M632.444,555.588h24.145a15.386,15.386,0,0,1,15.386,15.387v.5H632.445Z"
            transform="translate(-185.5 -267.585)" fill="#2f2e41" />
        <path
            d="M649.8,546.54q-.214,0-.43-.021L632.4,545.284a4.5,4.5,0,0,1-3.809-6.029L651.3,488.24a3.5,3.5,0,0,0-.2-2.8,3.451,3.451,0,0,0-2.211-1.76c-10.677-2.791-38.072-10.223-61.786-18.918-10.16-3.726-16.559-9.109-19.019-16-3.243-9.087,1.555-17.374,1.76-17.722l.161-.272,22.315,2.028,24.191,2.058,53.013,28.428a20.086,20.086,0,0,1,8.819,25.784l-24.44,54.808A4.5,4.5,0,0,1,649.8,546.54Z"
            transform="translate(-185.5 -267.585)" fill="#2f2e41" />
        <circle cx="24.561" cy="24.561" r="24.561" transform="translate(386.144 15.159)" fill="#ffb8b8" />
        <path d="M443.071,295.005h12.26l5.833-31.8h-18.1Z" fill="#ffb8b8" />
        <path d="M625.444,558.588h24.145a15.386,15.386,0,0,1,15.386,15.387v.5H625.445Z"
            transform="translate(-185.5 -267.585)" fill="#2f2e41" />
        <path
            d="M642.8,549.54q-.214,0-.43-.021L625.4,548.284a4.5,4.5,0,0,1-3.809-6.029L644.3,491.24a3.5,3.5,0,0,0-.2-2.8,3.451,3.451,0,0,0-2.211-1.76c-10.677-2.791-38.072-10.223-61.786-18.918-10.16-3.726-16.559-9.109-19.019-16-3.243-9.087,1.555-17.374,1.76-17.722l.161-.272,22.315,2.028,24.191,2.058,53.013,28.428a20.086,20.086,0,0,1,8.819,25.784l-24.44,54.808a4.5,4.5,0,0,1-4.107,2.667Z"
            transform="translate(-185.5 -267.585)" fill="#2f2e41" />
        <path
            d="M603.78,345.794l-26-9s-16.322,12.54-8.481,43.649a77.012,77.012,0,0,1-3.4,48.32,49.784,49.784,0,0,1-2.619,5.531s29,35,56,9l-10.5-50.5S625.28,359.294,603.78,345.794Z"
            transform="translate(-185.5 -267.585)" fill="currentColor" />
        <path
            d="M599.255,332.7c-3.5-5.232-6.254-12.488-2.406-17.466,3.8-4.914,11.292-4.19,17.11-6.365,8.1-3.029,12.8-12.549,11.338-21.076s-8.31-15.594-16.464-18.487-17.348-1.951-25.333,1.379c-9.829,4.1-18.261,12.03-21.8,22.076s-1.646,22.108,5.689,29.83c7.864,8.278,20.206,10.484,31.623,10.351"
            transform="translate(-185.5 -267.585)" fill="#2f2e41" />
        <path
            d="M576.408,288.069c-4.4,3.586-11.125,1.993-15.854-1.154s-8.565-7.628-13.681-10.1c-9.019-4.35-19.924-1.458-28.7,3.36s-16.559,11.475-25.831,15.256-21.1,3.968-28.125-3.172a25.732,25.732,0,0,0,37.71,30.371c10.159-6.188,15.771-19.164,27.166-22.579,6.305-1.89,13.076-.368,19.449,1.281s13.018,3.43,19.449,2.027,12.447-7.183,11.629-13.715Z"
            transform="translate(-183.5 -267.585)" fill="#2f2e41" />
        <path
            d="M715.538,392.877a10.743,10.743,0,0,0-15.862-4.442l-95.47-21.427-1.187,23.332,94.217,13.726a10.8,10.8,0,0,0,18.3-11.189Z"
            transform="translate(-185.5 -267.585)" fill="#ffb8b8" />
        <path
            d="M620.945,369.151l-5.827,23.62a4.817,4.817,0,0,1-6.5,3.3l-22.442-9.2a13.377,13.377,0,1,1,6.484-25.957l24.068,2.283a4.817,4.817,0,0,1,4.22,5.949Z"
            transform="translate(-185.5 -267.585)" fill="currentColor" />
        <circle cx="7" cy="7" r="7" transform="translate(512.01 129.829)" fill="currentColor" />
    </g>
</svg>