<svg xmlns="http://www.w3.org/2000/svg" viewBox="0 0 980.318 528.054">
    <g transform="translate(0.5)">
        <path
            d="M742.97,297.894c-2.536,9.985-.6,20.724,3.687,30.09s10.812,17.529,17.713,25.179c3.472,3.849,7.229,7.94,7.965,13.071.982,6.841-3.631,13.032-6.729,19.21a47.2,47.2,0,0,0-4.841,17.323c-.416,5.179.231,10.887,3.859,14.607,3.5,3.586,8.869,4.454,13.857,4.918a177.111,177.111,0,0,0,41.237-1c-3.828-5.091-2.39-8.249-2.03-14.609.706-12.475,9.785-23.77,11.548-36.14,1.4-9.835-5.109-18.863-11.262-26.662l-28.215-35.76c-4.675-5.925-9.332-12.029-12.689-18.822-2.4-4.855-2.849-13.969-8.885-15.588C756.812,270.664,745.182,289.185,742.97,297.894Z"
            transform="translate(-477.55 -213.227)" fill="#47465a" />
        <path
            d="M738.2,328.855s19.464,57.42,29.2,61.312S709,464.132,709,464.132L659.368,439.8l-1.946-46.714,19.464-.973s2.92-19.464-6.812-29.2S738.2,328.855,738.2,328.855Z"
            transform="translate(-334.313 -214.713)" fill="#fbbebe" />
        <path
            d="M738.2,328.855s19.464,57.42,29.2,61.312S709,464.132,709,464.132L659.368,439.8l-1.946-46.714,19.464-.973s2.92-19.464-6.812-29.2S738.2,328.855,738.2,328.855Z"
            transform="translate(-334.313 -214.713)" opacity="0.1" />
        <path
            d="M706.131,427.435s41.848-28.223,43.795-51.58c0,0,31.143,20.437,40.875,19.464s36.009,4.866,36.009,8.759-24.33,113.866-24.33,113.866,17.518,46.714,8.759,61.313-13.625,82.723-13.625,82.723H595.185s27.25-47.687,12.652-81.75S587.4,403.1,587.4,403.1s10.705-7.786,21.411-5.839,23.357-5.839,31.143-6.812,25.43,3.011,25.43,3.011Z"
            transform="translate(-324.63 -215.972)" fill="currentcolor" />
        <path
            d="M131.4,668.084v42.822a28.645,28.645,0,0,0,28.291,28.642l901.019,11.124a16.451,16.451,0,0,0,16.655-16.45V686.885a16.307,16.307,0,0,0-15.8-16.3l-903.966-27.9a25.41,25.41,0,0,0-26.195,25.4Z"
            transform="translate(-131.399 -223.119)" fill="#fff" stroke="#707070" stroke-width="1" />
        <path
            d="M131.4,700.855v11.609a28.644,28.644,0,0,0,28.291,28.642l901.019,11.124a16.451,16.451,0,0,0,16.655-16.451v-1.523Z"
            transform="translate(-131.399 -224.677)" fill="rgba(243,243,243,0.97)" stroke="#707070" stroke-width="1"
            opacity="0.1" />
        <path d="M499.362,523.593l114-14.792,202.717,7.4-73.416,22.968Z" transform="translate(-322.237 -77.585)"
            fill="#f2f2f2" />
        <path d="M304.8,516.759v11.679l110.946,25.3,10.842-2.5,1.81-.419L508.2,508Z"
            transform="translate(174.996 -77.563)" fill="#d8d8d8" />
        <path d="M386.8,517v11.679l110.946,25.3,10.842-2.5,1.81-12.1Z" transform="translate(92.996 -77.804)"
            opacity="0.1" />
        <path d="M490.22,681.427c-1.946-.973-42.821-8.759-42.821-8.759l73.964-6.812Z"
            transform="translate(117.066 -223.74)" fill="#47465a" />
        <ellipse cx="63.259" cy="63.259" rx="63.259" ry="63.259" transform="translate(288.072 37.258)" fill="#fbbebe" />
        <path
            d="M442.832,608.835s56.446,24.33,70.071,17.518,54.5-24.33,67.152,11.679c10.2,29.039-49.358,30.862-72.8,30.48a19.585,19.585,0,0,1-14.792-7.123h0L411.2,633.652S429.207,603,442.832,608.835Z"
            transform="translate(92.437 -222.193)" fill="#fbbebe" />
        <path d="M658.65,562.855l-6.813,5.839L715.1,658.23s9.732.973,6.812-3.893Z"
            transform="translate(-282.988 -220.981)" fill="#47465a" />
        <path d="M628.611,422.705l-6.812-8.759,2.92-1.947,6.813,7.786Z" transform="translate(-256.844 -74.992)"
            fill="#47465a" />
        <path
            d="M520.055,398.355s33.089,5.839,32.116,31.143,7.3,54.013,15.085,67.638,1.947,24.33,0,42.821,9.732,37.955,3.893,47.688,63.259,16.545,63.259,26.277S590.613,642.145,598.4,654.8c5.6,9.1-33.881-6.226-56.476-15.544a39.437,39.437,0,0,1-23.677-27.7c-.684-3.1-.867-5.9-.137-7.847,2.92-7.786-31.629-18-32.6-37.469s4.866-38.928,9.732-58.393S520.055,398.355,520.055,398.355Z"
            transform="translate(-32.961 -216.574)" fill="currentcolor" />
        <path
            d="M469.187,503.016l-285.384,2.7a10.377,10.377,0,0,0-9.342,6.068L97.551,680.3a10.377,10.377,0,0,0,9.8,14.679l286.387-9.906a10.377,10.377,0,0,0,9.031-5.952l75.908-161.306a10.377,10.377,0,0,0-9.487-14.795Z"
            transform="translate(500.156 -219.378)" fill="#d8d8d8" />
        <path
            d="M690.292,608.842s56.446,24.33,70.072,17.518,54.5-24.33,67.152,11.679c10.2,29.039-49.358,30.862-72.8,30.48a19.585,19.585,0,0,1-14.792-7.123h0L657.2,652.636S676.667,603,690.292,608.842Z"
            transform="translate(-394.434 -222.2)" fill="#fbbebe" />
        <path
            d="M817.152,419.111s-14.112-18.978-20.924-1.46-5.839,85.643-5.839,85.643S778.71,537.356,782.6,559.74s-3.893,25.3-3.893,25.3-1.946,9.732,3.893,14.6,9.732,26.277,7.786,29.2,2.919,21.411,6.812,21.411a101.953,101.953,0,0,0,12.165-1.46s19.951-36.5,61.8-39.415c0,0-6.812-9.732-2.92-29.2S817.152,419.111,817.152,419.111Z"
            transform="translate(-554.87 -216.892)" opacity="0.1" />
        <path
            d="M833.4,404.824s-16.058-6.326-22.871,11.192-13.138,87.1-13.138,87.1-11.679,34.062-7.786,56.446-3.893,25.3-3.893,25.3-1.947,9.732,3.893,14.6,9.732,26.277,7.786,29.2,2.92,21.411,6.813,21.411,39.9,5.839,39.9,5.839-7.786-43.795,34.063-46.714c0,0-6.812-9.732-2.92-29.2S833.4,404.824,833.4,404.824Z"
            transform="translate(-568.683 -216.718)" fill="currentcolor" />
        <path
            d="M687.3,222.817a73.9,73.9,0,0,1,65.655-6.343c11.457,4.507,21.578,11.844,31.043,19.717,7.593,6.316,15,13.207,19.662,21.912,7.073,13.2,7.052,28.911,6.861,43.885-.167,13.036-.336,26.113-2.113,39.028-2.437,17.715-7.9,35.254-6.642,53.091s11.737,36.869,29.261,40.427a234.872,234.872,0,0,1-48.893-1.408c-10.213-1.369-20.934-3.707-28.4-10.808-5.453-5.186-8.535-12.336-11.217-19.367-2.7-7.067-5.163-14.411-5.068-21.974.2-15.737,11.124-28.937,18.256-42.966,2-3.938,3.759-8.171,3.689-12.588s-2.375-9.054-6.48-10.684c-5.065-2.013-10.931.99-16.2-.417-8.461-2.26-10.657-14.01-18.425-18.053-5.747-2.992-13.083-.749-17.916,3.568-2.161,1.93-4.012,4.263-6.519,5.717-3.4,1.971-7.527,2.067-11.456,2.11-7.334.081-32.368-11.416-37.654-16.5-5.156,26.523-43.5,3.44-21.5-35.691,7.662-13.625,17.825-26.279,31.343-34.126s30.768-10.281,44.96-3.729"
            transform="translate(-357.159 -211.571)" fill="#47465a" />
        <ellipse cx="8.759" cy="15.571" rx="8.759" ry="15.571" transform="translate(386.853 100.031)" fill="#fbbebe" />
        <path d="M827.87,392.374s-54.013,7.768-56.933,11.661,2.92,27.25,2.92,27.25l38.929,6.812,29.955-6.46Z"
            transform="translate(-518.387 -216.414)" fill="currentcolor" />
        <path
            d="M599.977,431.526c8.135-1.4,16.068,5.96,20.281,15.667s5.356,21.338,5.77,32.638c.411,11.231.168,22.7-2.389,33.377-5.251,21.926-19.35,37.427-27.51,57.588a112.924,112.924,0,0,0-7.41,50.335"
            transform="translate(-124.932 -217.458)" opacity="0.1" />
        <path
            d="M605.977,431.526c8.135-1.4,16.068,5.96,20.28,15.667s5.356,21.338,5.77,32.638c.412,11.231.168,22.7-2.389,33.377-5.251,21.926-19.35,37.427-27.51,57.588a112.923,112.923,0,0,0-7.41,50.335"
            transform="translate(-136.771 -217.458)" fill="currentcolor" />
        <path d="M999.089,507.694l-94.147,37.659L846.1,534.761l5.133-42.119.753-6.131,98.853-30.6,7.062,7.061Z"
            transform="translate(-842.693 -76.168)" fill="currentcolor" />
        <path d="M1000.579,463.616v40.753l-98.855,30.6,5.133-42.119Z" transform="translate(-898.318 -76.374)"
            opacity="0.1" />
        <path
            d="M1088.128,662.393l-6.663,2.467-79.458,29.427-6.176,2.286a1.3,1.3,0,0,1-1.185-.139l-7.277-4.879-75.694-50.783-7.151-4.8a1.315,1.315,0,0,1,.349-2.349l11.4-3.492,80.155-24.555,7-2.147a1.309,1.309,0,0,1,1.122.167l5.513,3.715,71.415,48.093,6.921,4.663a1.313,1.313,0,0,1-.271,2.321Z"
            transform="translate(-894.866 -222.066)" fill="#7a799c" />
        <path
            d="M919.977,640.579,990.9,688.816a2.611,2.611,0,0,0,2.364.294l75.3-27.489a2.634,2.634,0,0,0,.533-4.676l-68.65-44.8a2.61,2.61,0,0,0-2.2-.308L920.676,635.89a2.633,2.633,0,0,0-.7,4.689Z"
            transform="translate(-890.664 -222.29)" fill="#f2f2f2" />
        <path d="M1093.734,630.872v10.636h-4.6l-7.151-4.8a1.314,1.314,0,0,1,.349-2.349Z"
            transform="translate(-1072.323 -222.803)" fill="currentcolor" />
        <path d="M1007.948,693.366V696.7l-6.175,2.286a1.3,1.3,0,0,1-1.185-.139l-7.277-4.879v-.6Z"
            transform="translate(-900.808 -224.477)" fill="currentcolor" />
        <path d="M910.605,663.825l-6.663,2.468v-9.451h.014l6.921,4.663a1.313,1.313,0,0,1-.272,2.321Z"
            transform="translate(-717.344 -223.498)" fill="currentcolor" />
        <path d="M998.665,607.316H985.032V605.58l7-2.147a1.309,1.309,0,0,1,1.122.167Z"
            transform="translate(-883.468 -222.066)" fill="currentcolor" />
        <ellipse cx="0.973" cy="0.973" rx="0.973" ry="0.973" transform="translate(144.036 407.08)" fill="#f2f2f2" />
    </g>
</svg>